# xmcd
#
# Track frame offsets: 
#        150
#        13392
#        39487
#        57720
#        76220
#        93622
#        109215
#        136284
#        150453
#        166989
#        187196
#        200747
#        228620
#        241540
#        260713
#        274320
#        303031
#        322795
#        337743
#
# Disc length: 4752 seconds
#
# Revision: 0
# Processed by: cddbd v1.5.2PL0 Copyright (c) Steve Scherf et al.
# Submitted via: ExactAudioCopy v0.99pb5
#
DISCID=08128e13
DTITLE=Ró¿ni wykonawcy - Las,woda and blues 2014
DYEAR=2015
DGENRE=Blues
TTITLE0=01.Bluesferajna - Pros o co  chcesz
TTITLE1=02.Willie Mae Unit - Buffalo skinners
TTITLE2=03.Doktor Blues - No Matter How She Done It
TTITLE3=04.Tandeta Blues Band - Jestes sam
TTITLE4=05.Gravelroad - 40 miles
TTITLE5=06.Shoe Laces - Woman Cant Live Without Man
TTITLE6=07.Niki Buzz and Wielka £ódz - Little Red Rooster
TTITLE7=08.Wild Shooter Band - Smokey Chicago
TTITLE8=09.Outsider Blues - Bania
TTITLE9=10.Darek £ach and J.J.Band - Ona posz³a inna droga 
TTITLE10=11.Boogie Bozs and Boogie Boys Are In Town
TTITLE11=12.Funky New Orleans - Bah Duey Duey
TTITLE12=13.Kasa Chorzych - Po dlugich przemysleniach radzimy Panu
TTITLE13=14.J.J.Band and Lucky Guy
TTITLE14=15.Sexy Mama - Mala
TTITLE15=16.Droga Ewakuacyjna - Around The Blues
TTITLE16=17.Po 50-ce - Jej rozgrzane cialo
TTITLE17=18.Day After Day - Down The Road
TTITLE18=19.Indianer - Dobra woda
EXTD=
EXTT0=
EXTT1=
EXTT2=
EXTT3=
EXTT4=
EXTT5=
EXTT6=
EXTT7=
EXTT8=
EXTT9=
EXTT10=
EXTT11=
EXTT12=
EXTT13=
EXTT14=
EXTT15=
EXTT16=
EXTT17=
EXTT18=
PLAYORDER=
